#N canvas 587 66 698 552 10;
#X obj 187 70 import mrpeach;
#X obj 105 160 unpackOSC;
#X obj 155 349 noteout;
#X floatatom 139 292 5 0 0 0 - - -, f 5;
#X floatatom 174 260 5 0 0 0 - - -, f 5;
#X msg 210 305 1;
#X text 122 70 ROUTER;
#X obj 105 111 udpreceive 8333;
#X obj 105 372 print;
#X obj 587 66 import mrpeach;
#X msg 456 129 disconnect;
#X obj 500 253 packOSC;
#X msg 515 221 send /Direita/Anelar/z1/ 56 127;
#X msg 500 193 send /Direita/Anelar/z1/ 56 0;
#X obj 456 290 udpsend;
#X text 536 113 desconecta da rede local;
#X text 634 144 conecta a rede local atraves da porta 8333;
#X text 696 181 envia o note off da nota MIDI G#3;
#X text 730 216 envia o note on da nota MIDI G#3;
#X text 787 348 envia o note off da nota MIDI A3;
#X text 818 384 envia o note on da nota MIDI A3;
#X text 815 489 transforma a mensagem OSC em uma lista de numeros float
;
#X text 751 526 envia a mensagem OSC atraves do protocolo UDP;
#X msg 478 157 connect localhost 8333;
#X obj 105 215 unpack s f f f f;
#X floatatom 255 274 5 0 0 0 - - -, f 5;
#X floatatom 304 274 5 0 0 0 - - -, f 5;
#X msg 361 274 2;
#X obj 279 352 ctlout;
#X obj 127 188 print;
#X text 602 38 TESTER;
#X connect 1 0 24 0;
#X connect 1 0 29 0;
#X connect 3 0 2 0;
#X connect 4 0 2 1;
#X connect 5 0 2 2;
#X connect 7 0 1 0;
#X connect 10 0 14 0;
#X connect 11 0 14 0;
#X connect 12 0 11 0;
#X connect 13 0 11 0;
#X connect 23 0 14 0;
#X connect 24 0 8 0;
#X connect 24 1 3 0;
#X connect 24 2 4 0;
#X connect 24 3 25 0;
#X connect 24 4 26 0;
#X connect 25 0 28 1;
#X connect 26 0 28 0;
#X connect 27 0 28 2;
